<?xml version="1.0" standalone="no"?>
<!DOCTYPE svg PUBLIC "-//W3C//DTD SVG 20010904//EN"
 "http://www.w3.org/TR/2001/REC-SVG-20010904/DTD/svg10.dtd">
<svg version="1.0" xmlns="http://www.w3.org/2000/svg"
 width="192.000000pt" height="192.000000pt" viewBox="0 0 192.000000 192.000000"
 preserveAspectRatio="xMidYMid meet">
<metadata>
Created by potrace 1.14, written by Peter Selinger 2001-2017
</metadata>
<g transform="translate(0.000000,192.000000) scale(0.100000,-0.100000)"
fill="#000000" stroke="none">
<path d="M58 1350 l-56 -5 27 -105 c45 -175 112 -298 225 -413 101 -103 259
-204 373 -239 46 -14 47 -21 17 -95 -10 -25 -10 -33 -1 -34 15 -1 617 -1 634
0 7 1 5 17 -8 51 -22 59 -23 70 -6 70 6 0 51 18 99 39 227 101 393 264 479
469 29 70 81 253 74 260 -5 6 -1796 7 -1857 2z"/>
</g>
</svg>
